<?xml version="1.0" encoding="UTF-8"?> <svg xmlns="http://www.w3.org/2000/svg" xmlns:xlink="http://www.w3.org/1999/xlink" width="115px" height="50px" viewBox="0 0 115 50" version="1.1"><title>Group</title><desc>Created with Sketch.</desc><g id="Style-Guide" stroke="none" stroke-width="1" fill="none" fill-rule="evenodd"><g id="UI-Elements" transform="translate(-100.000000, -90.000000)" fill="#000000"><g id="Group" transform="translate(100.000000, 90.000000)"><path d="M9.18087665,0 C3.54226739,-0.000219330953 0,4.37323987 0,9.98526096 L0,40.0145197 C0,45.699578 3.54226739,49.9997807 9.18087665,50 C14.8192684,50 18,45.8454331 18,40.2331927 L18,32.2155497 L13.445563,32.2155497 L13.445563,40.7433565 C13.445563,43.2215769 11.999855,44.9709606 9.3977546,44.9709606 C6.65077888,44.9709606 5.20507088,43.2215769 5.20507088,40.8163937 L5.20507088,9.18360633 C5.20507088,6.85124097 6.65077888,5.02903942 9.3977546,5.02903942 C11.999855,5.02903942 13.445563,6.85124097 13.445563,9.25664353 L13.445563,17.7114131 L18,17.7114131 L18,9.76680733 C18,4.15434758 14.8192684,0 9.18087665,0" id="Fill-3"></path><polyline id="Fill-4" points="28.2174766 1 23 1 23 50 38 50 38 44.9235451 28.2174766 44.9233237 28.2174766 1"></polyline><polygon id="Fill-5" points="42 50 48 50 48 1 42 1"></polygon><path d="M64.9579554,39.7960661 L61.7183606,42.784231 L63.3378401,44.3149417 C62.7042045,44.752507 61.9296431,44.9709606 61.0139442,44.9709606 C58.4086208,44.9709606 57.0705688,43.0759411 57.0705688,40.8163937 L57.0705688,9.18382566 C57.0705688,6.99709606 58.4088328,5.02925875 61.0141561,5.02925875 C63.6199034,5.02925875 64.9579554,6.99709606 64.9579554,9.18382566 L64.9579554,39.7960661 Z M70.0283123,40.3790478 L70.0283123,9.98548029 C70.0285242,4.30042199 66.50729,0 61.0141561,0 C55.5214461,0 52,4.30042199 52,9.98548029 L52,40.014739 C52,45.6997973 55.5212342,50 61.0139442,50 C62.8451301,50 64.5356023,49.5626541 65.9437993,48.6153637 C66.7183606,49.4898362 67.915487,50 69.253539,50 C70.591803,50 71.2960075,49.7815464 72,49.2711632 L72,46.0643254 C70.5212342,46.0643254 69.4650335,45.6997973 68.9015428,45.1168157 C69.6055353,43.950633 70.0283123,42.2014686 70.0283123,40.3790478 L70.0283123,40.3790478 Z" id="Fill-6"></path><path d="M88.9999881,40.577267 C88.9999881,43.5489866 87.714412,45.0712731 85.0714687,45.0712731 C82.4287403,45.0712731 81.1427343,43.5489866 81.1427343,40.5770489 L81.1429493,1 L76,1 L76,40.2869442 C76,46.2308196 79.785797,50 85.0001075,50 C90.1426268,50 94,46.2308196 94,40.2871623 L94,1 L88.9999881,1 L88.9999881,40.577267" id="Fill-7"></path><polyline id="Fill-8" points="114.999773 5.92942378 115 1.0002214 99 1 99 50 114.999773 50 114.999773 45.0705762 104.433868 45.0705762 104.433868 27.0450251 112.056409 27.0450251 112.056409 22.2628309 104.433868 22.2628309 104.433868 5.92942378 114.999773 5.92942378"></polyline></g></g></g></svg> 